<?xml version="1.0" ?><svg height="1024" preserveAspectRatio="xMidYMid" viewBox="0 0 1024 1024" width="1024" xmlns="http://www.w3.org/2000/svg" xmlns:xlink="http://www.w3.org/1999/xlink"><defs><style>
      .cls-1, .cls-3 {
        fill: #fff;
      }

      .cls-2 {
        fill: #006991;
      }

      .cls-3, .cls-4, .cls-5, .cls-6, .cls-7 {
        fill-rule: evenodd;
      }

      .cls-4, .cls-5, .cls-6 {
        fill: #010101;
      }

      .cls-4 {
        opacity: 0.05;
      }

      .cls-5 {
        opacity: 0.1;
      }

      .cls-6 {
        opacity: 0.15;
      }

      .cls-7 {
        fill: #000;
        opacity: 0.2;
      }
    </style></defs><circle class="cls-1" cx="512" cy="512" r="512"/><circle class="cls-2" cx="513" cy="513" r="501"/><path class="cls-3" d="M713.577,110.155 L608.997,109.989 C491.513,109.989 415.599,187.267 415.599,306.875 L415.599,397.653 L310.448,397.653 C301.362,397.653 294.005,404.960 294.005,413.974 L294.005,545.501 C294.005,554.514 301.370,561.813 310.448,561.813 L415.590,561.813 L415.590,893.697 C415.590,902.711 422.948,910.010 432.033,910.010 L569.215,910.010 C578.300,910.010 585.658,902.702 585.658,893.697 L585.658,561.813 L708.594,561.813 C717.680,561.813 725.037,554.514 725.037,545.501 L725.088,413.974 C725.088,409.646 723.351,405.501 720.272,402.438 C717.185,399.376 712.999,397.653 708.636,397.653 L585.666,397.653 L585.666,320.699 C585.666,283.713 594.550,264.936 643.107,264.936 L713.561,264.911 C722.638,264.911 729.995,257.604 729.995,248.598 L729.995,126.468 C729.995,117.471 722.646,110.172 713.577,110.155 Z"/><path class="cls-4" d="M0.008,509.066 C0.003,510.043 0.000,511.021 0.000,512.000 C0.000,794.770 229.230,1024.000 512.000,1024.000 C626.613,1024.000 732.430,986.341 817.752,922.721 L0.008,509.066 Z"/><path class="cls-5" d="M0.031,517.724 C0.010,515.819 0.000,513.911 0.000,512.000 C0.000,368.971 58.648,239.640 153.208,146.743 L874.075,874.003 C856.305,891.776 837.234,908.249 817.018,923.267 L0.031,517.724 Z"/><path class="cls-6" d="M872.758,875.315 C889.442,858.747 904.991,841.039 919.279,822.316 L495.341,0.266 C359.576,4.606 237.155,61.801 147.982,151.951 L872.758,875.315 Z"/><path class="cls-7" d="M918.196,823.730 C984.551,737.396 1024.000,629.305 1024.000,512.000 C1024.000,229.230 794.770,-0.000 512.000,-0.000 C504.185,-0.000 496.410,0.175 488.680,0.522 L918.196,823.730 Z"/></svg>