<?xml version="1.0" ?><svg height="1024" preserveAspectRatio="xMidYMid" viewBox="0 0 1024 1024" width="1024" xmlns="http://www.w3.org/2000/svg" xmlns:xlink="http://www.w3.org/1999/xlink"><defs><style>
      .cls-1, .cls-3 {
        fill: #fff;
      }

      .cls-2 {
        fill: #cc2127;
      }

      .cls-3, .cls-4, .cls-5, .cls-6, .cls-7 {
        fill-rule: evenodd;
      }

      .cls-4, .cls-5, .cls-6 {
        fill: #010101;
      }

      .cls-4 {
        opacity: 0.05;
      }

      .cls-5 {
        opacity: 0.1;
      }

      .cls-6 {
        opacity: 0.15;
      }

      .cls-7 {
        fill: #000;
        opacity: 0.2;
      }
    </style></defs><circle class="cls-1" cx="512" cy="512" r="512"/><circle class="cls-2" cx="513" cy="513" r="501"/><path class="cls-3" d="M738.809,239.654 C642.945,135.577 481.167,142.537 373.601,222.825 C281.906,291.266 217.119,443.236 294.175,546.654 C309.925,567.793 333.005,580.687 358.556,585.923 C365.378,587.321 370.859,584.000 373.248,577.598 C378.417,563.768 383.931,550.781 385.122,535.972 C385.576,530.324 381.031,527.145 376.309,526.902 C306.424,450.316 353.895,355.010 421.999,296.071 C482.211,243.968 592.778,195.145 663.549,255.179 C712.387,296.607 716.109,374.020 713.769,432.509 C710.831,505.863 685.145,583.183 608.818,606.515 C583.684,614.199 554.609,611.148 537.926,589.068 C519.080,564.124 525.124,534.057 532.265,506.549 C543.260,464.196 569.319,404.237 544.639,362.341 C514.760,311.614 454.578,357.738 437.197,391.898 C426.612,412.704 407.544,479.349 435.684,496.437 C405.782,571.898 385.610,654.821 371.967,734.412 C365.840,770.154 360.198,809.486 366.982,845.543 C367.343,847.451 375.077,874.569 382.815,885.168 C381.610,892.005 391.718,894.475 395.745,889.096 C423.276,852.327 451.476,817.110 466.663,773.231 C474.732,749.922 477.729,724.378 482.560,700.259 C485.945,683.363 492.875,664.146 494.630,646.136 C494.739,646.118 494.840,646.076 494.953,646.058 C518.720,664.277 550.698,679.697 578.939,685.173 C623.348,693.782 675.694,677.287 711.966,652.272 C717.507,648.449 723.055,643.846 728.400,638.704 C745.165,627.561 760.450,613.104 773.515,594.877 C848.663,490.031 823.145,331.220 738.809,239.654 Z"/><path class="cls-4" d="M0.008,509.066 C0.003,510.043 0.000,511.021 0.000,512.000 C0.000,794.770 229.230,1024.000 512.000,1024.000 C626.613,1024.000 732.430,986.341 817.752,922.721 L0.008,509.066 Z"/><path class="cls-5" d="M0.031,517.724 C0.010,515.819 0.000,513.911 0.000,512.000 C0.000,368.971 58.648,239.640 153.208,146.743 L874.075,874.003 C856.305,891.776 837.234,908.249 817.018,923.267 L0.031,517.724 Z"/><path class="cls-6" d="M872.758,875.315 C889.442,858.747 904.991,841.039 919.279,822.316 L495.341,0.266 C359.576,4.606 237.155,61.801 147.982,151.951 L872.758,875.315 Z"/><path class="cls-7" d="M918.196,823.730 C984.551,737.396 1024.000,629.305 1024.000,512.000 C1024.000,229.230 794.770,-0.000 512.000,-0.000 C504.185,-0.000 496.410,0.175 488.680,0.522 L918.196,823.730 Z"/></svg>